<?xml version="1.0" standalone="no"?>
<!DOCTYPE svg PUBLIC "-//W3C//DTD SVG 20010904//EN"
 "http://www.w3.org/TR/2001/REC-SVG-20010904/DTD/svg10.dtd">
<svg version="1.0" xmlns="http://www.w3.org/2000/svg"
 width="501.000000pt" height="501.000000pt" viewBox="0 0 501.000000 501.000000"
 preserveAspectRatio="xMidYMid meet">

<g transform="translate(0.000000,501.000000) scale(0.100000,-0.100000)"
fill="#B12F2F" stroke="none">
<path d="M0 2508 l0 -2503 2505 3 2505 2 0 2500 0 2500 -2505 0 -2505 0 0
-2502z m4020 1780 c125 -23 232 -100 287 -208 27 -53 28 -61 28 -195 0 -120
-3 -150 -23 -209 -46 -136 -104 -233 -238 -393 l-94 -112 0 -571 c0 -462 2
-570 13 -570 7 0 34 13 60 30 56 35 57 36 57 11 0 -12 -26 -39 -65 -70 l-65
-51 0 -440 0 -440 -389 0 -389 0 -108 -197 c-206 -381 -328 -566 -454 -693
-93 -93 -162 -132 -235 -134 -96 -2 -122 50 -106 211 16 154 47 256 122 405
45 90 149 246 230 346 l51 62 -871 0 -871 0 0 1485 0 1485 1007 0 c554 0 1003
-4 998 -8 -6 -5 -50 -35 -99 -67 -156 -102 -286 -212 -471 -399 -275 -276
-501 -571 -685 -891 -34 -60 -64 -111 -65 -113 -5 -5 -167 35 -236 59 -78 27
-212 92 -257 126 -35 26 -52 23 -52 -9 0 -63 190 -143 471 -198 l56 -11 -57
-117 c-114 -234 -194 -482 -188 -584 l3 -53 48 2 c68 4 87 17 87 58 0 102 84
372 186 594 l34 76 303 0 c199 0 334 5 397 13 570 81 1093 300 1498 629 l42
34 0 72 0 71 -102 -100 c-127 -123 -175 -163 -303 -248 -330 -221 -756 -370
-1220 -427 -103 -13 -578 -19 -590 -8 -12 12 157 312 279 494 249 374 590 729
887 922 42 27 91 56 110 64 l34 14 -45 5 -45 5 65 37 c143 81 372 166 532 198
136 27 319 30 438 8z"/>
<path d="M3637 4219 c-154 -13 -294 -53 -447 -128 l-95 -46 443 -3 442 -2 0
-353 1 -352 29 35 c42 49 146 262 166 340 23 89 23 221 0 287 -57 167 -254
248 -539 222z"/>
<path d="M3190 2432 c0 -12 11 -21 33 -27 53 -16 48 -44 -39 -215 -85 -166
-83 -164 -220 -233 -152 -77 -288 -98 -340 -54 -21 18 -27 32 -27 64 0 52 28
107 114 222 69 92 75 105 63 135 -11 29 -32 16 -127 -77 -105 -104 -277 -245
-361 -295 -118 -72 -160 -35 -86 76 93 138 399 352 505 352 29 0 32 11 8 32
-32 28 -59 29 -125 8 -182 -61 -459 -285 -531 -430 -29 -58 -36 -130 -14 -148
59 -49 177 4 406 185 51 40 96 72 98 69 3 -2 -5 -18 -17 -34 -46 -63 -35 -168
25 -220 80 -71 214 -44 452 92 l61 35 -5 -52 c-4 -45 -2 -55 17 -72 59 -53
195 11 431 202 64 51 96 67 86 41 -2 -7 -49 -106 -103 -221 l-99 -207 -145
-109 c-170 -127 -332 -265 -450 -385 l-85 -86 34 0 c30 0 49 14 155 118 135
132 429 373 441 360 1 -1 -48 -110 -110 -240 l-113 -238 41 1 42 0 144 292
143 293 95 59 c53 33 162 96 242 141 144 79 146 81 149 117 l3 37 -63 -44
c-35 -24 -104 -66 -153 -94 -50 -27 -121 -68 -158 -91 -37 -22 -67 -38 -67
-34 0 14 168 328 252 470 95 161 108 205 61 211 -37 5 -59 -14 -123 -107 -106
-155 -289 -320 -434 -391 -137 -68 -142 -25 -25 204 66 128 82 169 86 216 5
57 5 58 -25 74 -18 9 -55 16 -87 16 -46 0 -55 -3 -55 -18z"/>
<path d="M2754 1038 c-208 -225 -342 -513 -360 -772 -8 -120 2 -146 54 -146
74 0 165 89 298 290 90 137 197 326 298 529 l66 131 -163 0 -163 0 -30 -32z"/>
</g>
</svg>
